<svg width="1403" height="988" viewBox="0 0 1403 988" fill="none" xmlns="http://www.w3.org/2000/svg">
<path opacity="0.25" d="M651.78 892.249C628.959 851.568 699.884 802.516 589.581 768.858C479.279 735.199 426.68 770.065 350.166 589.013C273.653 407.96 226.575 358.834 148.014 373.757C69.4535 388.679 -52.6159 394.328 -149.075 266.821C-245.56 139.336 -478.519 231.785 -582.68 169.748C-686.847 107.759 -651.593 -32.6948 -651.593 -32.6948L271.676 -829L1676 799.23C1676 799.23 1498.92 879.313 1375.47 822.903C1252.03 766.492 1234.49 804.95 1155.16 858.415C1075.79 911.904 901.119 763.543 806.215 867.202C743.088 936.152 674.601 932.93 651.78 892.249Z" fill="url(#paint0_radial)"/>
<path opacity="0.25" d="M1853.98 1112.66C1840.42 1120.97 1604.31 1174.21 1532.61 1014.05C1460.91 853.884 1382.49 850.835 1263.86 839.363C1145.24 827.924 1181.1 826.447 1050.1 739.281C919.101 652.116 840.808 695.399 744.014 724.527C647.221 753.688 494.466 678.392 370.625 740.257C246.785 802.09 243.22 697.688 243.22 697.688C243.22 697.688 278.708 607.146 180.154 542.06C81.5674 476.973 131.446 404.263 105.398 287.305C79.3487 170.38 -187.459 -6.00001 -187.459 -6.00001L1913.29 23.5078L1853.98 1112.66Z" fill="url(#paint1_radial)"/>
<g filter="url(#filter0_i)">
<path d="M1683.5 914.759C1846.25 937.208 1882.38 1117.62 1882.38 1117.62L1898.1 -1.36057L-53.8071 -28.7777C-53.8071 -28.7777 143.178 130.907 166.411 212.565C189.645 294.224 80.9919 427.825 249.189 462.497C417.386 497.17 276.218 621.696 397.346 711.126C518.474 800.556 735.764 554.414 945.918 733.833C1074.65 843.743 1137.91 742.321 1249.26 714.177C1360.59 686.065 1393.57 732.47 1454.6 815.342C1515.64 898.213 1520.75 892.311 1683.5 914.759Z" fill="url(#paint2_radial)"/>
</g>
<path d="M280.235 326.038L278.685 323.126L275.819 321.495L278.73 319.945L280.361 317.078L281.91 319.99L284.777 321.621L281.866 323.171L280.235 326.038Z" fill="#FEA7AF"/>
<path d="M272.111 585.538L270.561 582.626L267.695 580.995L270.606 579.445L272.237 576.578L273.787 579.49L276.653 581.121L273.742 582.671L272.111 585.538Z" fill="#FEA7AF"/>
<path d="M927.509 209.382L925.959 206.471L923.093 204.84L926.004 203.29L927.635 200.423L929.185 203.334L932.051 204.966L929.14 206.516L927.509 209.382Z" fill="#FEA7AF"/>
<path opacity="0.29" d="M823.813 540.462L822.264 537.518L819.364 535.919L822.308 534.369L823.939 531.502L825.456 534.413L828.355 536.045L825.412 537.562L823.813 540.462Z" fill="white"/>
<path opacity="0.29" d="M833.218 456.253L831.669 453.309L828.77 451.71L831.713 450.16L833.344 447.293L834.861 450.205L837.76 451.836L834.817 453.353L833.218 456.253Z" fill="white"/>
<path opacity="0.29" d="M951.834 321.725L950.285 318.781L947.385 317.182L950.329 315.633L951.96 312.766L953.477 315.677L956.376 317.308L953.433 318.826L951.834 321.725Z" fill="white"/>
<path opacity="0.29" d="M802.841 321.725L801.292 318.781L798.392 317.182L801.336 315.633L802.967 312.766L804.484 315.677L807.383 317.308L804.44 318.826L802.841 321.725Z" fill="white"/>
<path opacity="0.29" d="M676.686 466.544L673.619 460.754L667.918 457.557L673.707 454.489L676.936 448.787L679.971 454.577L685.672 457.806L679.883 460.842L676.686 466.544Z" fill="#FEA7AF"/>
<path opacity="0.29" d="M502.347 245.489L500.892 242.774L498.186 241.242L500.933 239.787L502.465 237.082L503.92 239.829L506.593 241.36L503.878 242.816L502.347 245.489Z" fill="#FEA7AF"/>
<path opacity="0.29" d="M469.168 120.833L467.713 118.085L465.008 116.553L467.755 115.131L469.286 112.425L470.708 115.172L473.414 116.671L470.666 118.126L469.168 120.833Z" fill="#FEA7AF"/>
<path opacity="0.29" d="M424.808 491.545L422.184 486.572L417.289 483.776L422.26 481.151L425.023 476.255L427.68 481.228L432.576 483.991L427.604 486.649L424.808 491.545Z" fill="#FEA7AF"/>
<path d="M715.99 224.626L712.385 217.789L705.686 213.994L712.489 210.388L716.284 203.688L719.89 210.492L726.621 214.288L719.786 217.893L715.99 224.626Z" fill="white"/>
<path d="M1128.46 387.309L1124.86 380.472L1118.16 376.677L1124.96 373.071L1128.76 366.371L1132.36 373.175L1139.1 376.971L1132.26 380.576L1128.46 387.309Z" fill="white"/>
<path d="M481.499 422.223L477.894 415.387L471.195 411.592L477.998 407.986L481.793 401.286L485.398 408.09L492.13 411.886L485.294 415.491L481.499 422.223Z" fill="white"/>
<path d="M486.203 241.209L482.599 234.373L475.899 230.577L482.702 226.971L486.497 220.271L490.103 227.075L496.834 230.871L489.999 234.477L486.203 241.209Z" fill="white"/>
<path d="M98.3116 226.712L97.0471 224.291L94.6634 222.959L97.084 221.662L98.4156 219.31L99.6806 221.698L102.064 223.063L99.6436 224.328L98.3116 226.712Z" fill="white"/>
<path opacity="0.33" d="M976.048 481.626L973.739 477.308L969.488 474.878L973.805 472.601L976.235 468.317L978.544 472.668L982.795 475.065L978.477 477.374L976.048 481.626Z" fill="#FEA7AF"/>
<path opacity="0.33" d="M277.453 205.284L275.809 202.177L272.748 200.478L275.855 198.833L277.587 195.773L279.231 198.88L282.291 200.612L279.184 202.224L277.453 205.284Z" fill="#FEA7AF"/>
<path opacity="0.33" d="M200.067 109.976L198.423 106.868L195.363 105.137L198.47 103.525L200.201 100.464L201.845 103.572L204.873 105.27L201.798 106.916L200.067 109.976Z" fill="#FEA7AF"/>
<path opacity="0.33" d="M286.456 451.734L284.811 448.659L281.751 446.928L284.858 445.283L286.59 442.223L288.234 445.331L291.294 447.062L288.187 448.707L286.456 451.734Z" fill="#FEA7AF"/>
<path opacity="0.33" d="M465.415 387.959L463.77 384.851L460.71 383.12L463.818 381.475L465.548 378.447L467.161 381.522L470.22 383.253L467.113 384.898L465.415 387.959Z" fill="#FEA7AF"/>
<g opacity="0.35">
<g opacity="0.35">
<path opacity="0.35" d="M508.61 264.353L342.426 107.406C341.497 106.517 341.453 105.087 342.31 104.125C343.167 103.196 344.629 103.119 345.592 103.944L517.051 255.088C519.681 257.398 519.884 261.427 517.542 264.024C515.168 266.621 511.141 266.759 508.61 264.353Z" fill="url(#paint3_linear)"/>
<path opacity="0.35" d="M446.507 204.325L344.689 108.154C344.112 107.626 344.092 106.717 344.62 106.14C345.147 105.563 346.024 105.51 346.634 106.038L451.716 198.652C453.319 200.07 453.447 202.54 451.996 204.11C450.545 205.713 448.077 205.808 446.507 204.325Z" fill="url(#paint4_linear)"/>
</g>
<path opacity="0.35" d="M566.36 248.411L490.108 176.397C489.692 176.002 489.669 175.319 490.064 174.903C490.46 174.486 491.142 174.431 491.559 174.827L570.218 244.179C571.436 245.235 571.54 247.087 570.452 248.273C569.364 249.459 567.513 249.531 566.36 248.411Z" fill="url(#paint5_linear)"/>
<path opacity="0.35" d="M537.855 220.866L491.143 176.736C490.887 176.505 490.86 176.082 491.123 175.826C491.354 175.57 491.777 175.543 492.033 175.774L540.229 218.27C540.966 218.93 541.015 220.067 540.356 220.772C539.696 221.509 538.559 221.558 537.855 220.866Z" fill="url(#paint6_linear)"/>
</g>
<path d="M1084.26 379.604L988.704 289.336C988.166 288.832 988.128 287.989 988.631 287.451C989.135 286.912 989.953 286.874 990.517 287.353L1089.12 374.267C1090.63 375.603 1090.75 377.91 1089.39 379.403C1088.03 380.921 1085.7 380.987 1084.26 379.604Z" fill="url(#paint7_linear)"/>
<path d="M1048.55 345.088L989.987 289.774C989.669 289.472 989.651 288.951 989.953 288.609C990.256 288.266 990.776 288.248 991.094 288.55L1051.52 341.807C1052.45 342.614 1052.53 344.053 1051.7 344.958C1050.85 345.888 1049.43 345.943 1048.55 345.088Z" fill="url(#paint8_linear)"/>
<defs>
<filter id="filter0_i" x="-69.5249" y="-28.7776" width="1967.62" height="1155.8" filterUnits="userSpaceOnUse" color-interpolation-filters="sRGB">
<feFlood flood-opacity="0" result="BackgroundImageFix"/>
<feBlend mode="normal" in="SourceGraphic" in2="BackgroundImageFix" result="shape"/>
<feColorMatrix in="SourceAlpha" type="matrix" values="0 0 0 0 0 0 0 0 0 0 0 0 0 0 0 0 0 0 127 0" result="hardAlpha"/>
<feOffset dy="9.40402"/>
<feGaussianBlur stdDeviation="11.755"/>
<feComposite in2="hardAlpha" operator="arithmetic" k2="-1" k3="1"/>
<feColorMatrix type="matrix" values="0 0 0 0 0 0 0 0 0 0 0 0 0 0 0 0 0 0 0.25 0"/>
<feBlend mode="normal" in2="shape" result="effect1_innerShadow"/>
</filter>
<radialGradient id="paint0_radial" cx="0" cy="0" r="1" gradientUnits="userSpaceOnUse" gradientTransform="translate(478.98 411.904) rotate(49.2227) scale(869.215 952.96)">
<stop offset="0.00537634" stop-color="#DE3DBF"/>
<stop offset="1" stop-color="#67219E"/>
</radialGradient>
<radialGradient id="paint1_radial" cx="0" cy="0" r="1" gradientUnits="userSpaceOnUse" gradientTransform="translate(171.442 711.733) rotate(-179.195) scale(1323.02 1323.19)">
<stop offset="0.00537634" stop-color="#DE3DBF"/>
<stop offset="1" stop-color="#67219E"/>
</radialGradient>
<radialGradient id="paint2_radial" cx="0" cy="0" r="1" gradientUnits="userSpaceOnUse" gradientTransform="translate(293.76 519.864) rotate(-179.195) scale(1950.62 1950.89)">
<stop offset="0.00537634" stop-color="#DE3DBF"/>
<stop offset="1" stop-color="#67219E"/>
</radialGradient>
<linearGradient id="paint3_linear" x1="342.431" y1="104.003" x2="517.559" y2="264.005" gradientUnits="userSpaceOnUse">
<stop offset="0.00537634" stop-color="#FEA7AF"/>
<stop offset="0.9946" stop-color="#EA47AC" stop-opacity="0"/>
</linearGradient>
<linearGradient id="paint4_linear" x1="344.686" y1="106.067" x2="452.004" y2="204.116" gradientUnits="userSpaceOnUse">
<stop offset="0.00537634" stop-color="#FEA7AF"/>
<stop offset="0.9946" stop-color="#EA47AC" stop-opacity="0"/>
</linearGradient>
<linearGradient id="paint5_linear" x1="490.102" y1="174.838" x2="570.454" y2="248.25" gradientUnits="userSpaceOnUse">
<stop offset="0.00537634" stop-color="#FEA7AF"/>
<stop offset="0.9946" stop-color="#EA47AC" stop-opacity="0"/>
</linearGradient>
<linearGradient id="paint6_linear" x1="491.137" y1="175.784" x2="540.376" y2="220.771" gradientUnits="userSpaceOnUse">
<stop offset="0.00537634" stop-color="#FEA7AF"/>
<stop offset="0.9946" stop-color="#EA47AC" stop-opacity="0"/>
</linearGradient>
<linearGradient id="paint7_linear" x1="988.684" y1="287.395" x2="1089.4" y2="379.409" gradientUnits="userSpaceOnUse">
<stop offset="0.00537634" stop-color="#FEA7AF"/>
<stop offset="0.9946" stop-color="#EA47AC" stop-opacity="0"/>
</linearGradient>
<linearGradient id="paint8_linear" x1="989.98" y1="288.58" x2="1051.7" y2="344.967" gradientUnits="userSpaceOnUse">
<stop offset="0.00537634" stop-color="#FEA7AF"/>
<stop offset="0.9946" stop-color="#EA47AC" stop-opacity="0"/>
</linearGradient>
</defs>
</svg>
