<svg width="1403" height="953" viewBox="0 0 1403 953" fill="none" xmlns="http://www.w3.org/2000/svg">
<g filter="url(#filter0_d)">
<path d="M308.362 528.817C378.72 400.645 544.459 356.227 669.463 432.041V432.041C734.122 471.255 813.815 479.649 884.981 454.065L940.314 434.174C1060.35 391.021 1189.98 469.056 1208.94 595.198V595.198C1219.81 667.522 1269.24 728.53 1337.85 753.86V753.86C1467.7 801.801 1511.09 963.764 1422.6 1070.22V1070.22C1375.85 1126.47 1363.54 1204.02 1390.28 1272.09V1272.09C1436.92 1390.81 1363.66 1523.22 1238.13 1545.88L1180.27 1556.33C1105.85 1569.76 1041.03 1616.89 1004.64 1683.18V1683.18C934.28 1811.35 768.541 1855.77 643.537 1779.96V1779.96C578.879 1740.75 499.186 1732.35 428.02 1757.93L372.687 1777.83C252.649 1820.98 123.019 1742.94 104.057 1616.8V1616.8C93.1856 1544.48 43.758 1483.47 -24.8482 1458.14V1458.14C-154.697 1410.2 -198.086 1248.24 -109.599 1141.78V1141.78C-62.8469 1085.53 -50.5388 1007.98 -77.2784 939.91V939.91C-123.915 821.186 -50.6617 688.777 74.8656 666.117L132.729 655.672C207.15 642.238 271.97 595.113 308.362 528.817V528.817Z" fill="url(#paint0_linear)"/>
<path d="M1409.9 890.602L1403.88 879.173L1392.68 872.828L1404.05 866.8L1410.39 855.599L1416.42 866.973L1427.67 873.319L1416.25 879.347L1409.9 890.602Z" fill="white"/>
<path opacity="0.29" d="M1296.34 880.469L1293.75 875.547L1288.91 872.873L1293.83 870.283L1296.55 865.49L1299.09 870.357L1303.93 873.085L1299.01 875.621L1296.34 880.469Z" fill="white"/>
<path opacity="0.29" d="M627.754 531.06L625.164 526.138L620.318 523.465L625.238 520.874L627.964 516.082L630.501 520.948L635.346 523.676L630.427 526.212L627.754 531.06Z" fill="white"/>
<path opacity="0.29" d="M906.442 855.151L903.853 850.23L899.007 847.556L903.927 844.965L906.653 840.173L909.189 845.039L914.034 847.767L909.115 850.304L906.442 855.151Z" fill="white"/>
<path opacity="0.29" d="M1109.83 578.902L1107.24 573.98L1102.4 571.307L1107.32 568.716L1110.04 563.923L1112.58 568.79L1117.42 571.518L1112.5 574.054L1109.83 578.902Z" fill="white"/>
<path opacity="0.29" d="M278.94 722.228L276.35 717.306L271.504 714.633L276.424 712.042L279.15 707.249L281.687 712.116L286.532 714.844L281.613 717.38L278.94 722.228Z" fill="white"/>
</g>
<path d="M301.419 519.275C297.719 521.18 293.669 522.309 289.517 522.595L289.502 521.954C293.565 521.671 297.528 520.562 301.147 518.694C306.62 515.857 313.487 509.894 315.128 497.606C318.322 473.693 330.224 462.37 330.344 462.258L330.781 462.728C330.663 462.838 318.928 474.003 315.764 497.691C314.472 507.367 310 513.211 305.448 516.716C304.184 517.687 302.836 518.543 301.419 519.275Z" fill="#2F2E41"/>
<path d="M332.139 478.649C333.822 477.354 334.136 474.939 332.84 473.256C331.545 471.573 329.13 471.259 327.447 472.554C325.764 473.85 325.45 476.265 326.746 477.948C328.041 479.631 330.456 479.945 332.139 478.649Z" fill="#2F2E41"/>
<path d="M321.501 509.488C323.184 508.192 323.498 505.777 322.202 504.094C320.907 502.411 318.492 502.097 316.809 503.393C315.126 504.688 314.812 507.103 316.108 508.786C317.403 510.469 319.818 510.783 321.501 509.488Z" fill="#2F2E41"/>
<path d="M236.685 411.133C236.213 416.247 249.024 417.917 249.024 417.917C249.024 417.917 236.272 431.669 237.319 430.624C238.367 429.58 228.274 417.716 228.274 417.716C228.274 417.716 237.156 406.019 236.685 411.133Z" fill="#A0616A"/>
<path d="M271.464 435.211L263.738 451.518L259.874 460.804C259.874 460.804 259.627 477.347 262.79 484.602C265.954 491.858 282.717 496.865 284.529 497.32C285.459 497.548 286.368 497.853 287.248 498.23C287.927 498.458 290.197 495.741 292.693 492.798C295.19 489.855 288.394 488.034 288.394 488.034C288.394 488.034 277.071 481.221 276.618 481.221C276.195 481.22 273.994 480.229 274.076 478.991C274.183 477.87 274.061 476.739 273.719 475.667C273.415 474.752 273.25 473.796 273.23 472.832C273.23 472.832 277.548 454.609 278.693 448.655C279.839 442.7 290.945 437.339 290.945 437.339C290.945 437.339 299.762 458.135 299.533 460.174C299.304 462.213 299.982 463.347 302.02 464.936C304.057 466.525 309.278 459.507 309.278 459.507L306.57 450.892C306.57 450.892 303.865 439.104 299.119 428.448C296.747 423.119 292.612 422.038 289.071 422.288C285.691 422.561 282.544 424.119 280.276 426.641L270.096 437.766L275.552 427.965L271.464 435.211Z" fill="#2F2E41"/>
<path d="M211.613 454.624L192.795 461.626C192.795 461.626 180.562 458.438 182.38 454.814C184.197 451.191 194.161 456.642 194.161 456.642L205.275 449.178L211.613 454.624Z" fill="#A0616A"/>
<path d="M269.177 397.205L276.225 378.405C276.225 378.405 273.068 366.164 269.44 367.972C265.812 369.781 271.238 379.759 271.238 379.759L263.746 390.853L269.177 397.205Z" fill="#A0616A"/>
<path d="M264.397 385.765L272.316 395.519L252.672 417.122C261.54 421.711 266.969 430.523 278.154 427.607L260.433 463.39C253.286 451.485 241.665 447.32 228.848 440.887C221.155 443.337 215.399 450.313 210.469 459.219L201.19 449.916L230.909 423.44L237.598 421.437L241.345 414.842C247.625 406.153 255.777 392.552 264.397 385.765Z" fill="#AB21CF"/>
<path d="M302.247 464.257C302.019 465.389 305.185 470.832 306.542 472.647C307.9 474.461 310.621 473.105 311.982 472.2C313.342 471.296 313.794 472.203 315.154 472.204C316.514 472.206 319.236 469.943 321.961 465.868C324.685 461.792 315.393 462.46 314.713 462.686C314.033 462.912 307.466 459.051 307.466 459.051C307.466 459.051 302.475 463.124 302.247 464.257Z" fill="#2F2E41"/>
<path d="M290.814 491.052C291.947 490.827 297.382 494.006 299.193 495.368C301.004 496.73 299.641 499.448 298.733 500.806C297.825 502.165 298.731 502.619 298.729 503.979C298.727 505.338 296.458 508.055 292.375 510.769C288.293 513.483 288.984 504.193 289.212 503.514C289.439 502.834 285.595 496.257 285.595 496.257C285.595 496.257 289.68 491.277 290.814 491.052Z" fill="#2F2E41"/>
<path d="M234.988 418.479C238.354 415.889 238.982 411.06 236.391 407.695C233.8 404.329 228.971 403.701 225.606 406.292C222.24 408.883 221.612 413.711 224.203 417.077C226.794 420.442 231.623 421.07 234.988 418.479Z" fill="#A0616A"/>
<path d="M222.783 417.196C221.857 416.749 221.037 416.112 220.374 415.327C219.711 414.541 219.221 413.625 218.936 412.637C218.398 410.699 218.586 408.193 221.109 405.545C226.616 399.767 233.313 401.584 234.241 403.151C235.168 404.717 236.994 408.825 236.994 408.825C236.994 408.825 234.846 405.259 233.148 406.382C231.45 407.504 224.835 411.819 224.531 414.691C224.424 415.49 224.531 416.303 224.84 417.048C225.149 417.792 225.651 418.441 226.292 418.929L222.783 417.196Z" fill="#2F2E41"/>
<path d="M1347.34 818.283L1236.9 713.948C1236.28 713.366 1236.23 712.391 1236.81 711.769C1237.4 711.146 1238.34 711.102 1238.99 711.656L1352.96 812.115C1354.71 813.659 1354.85 816.325 1353.28 818.051C1351.7 819.806 1349.01 819.883 1347.34 818.283Z" fill="url(#paint1_linear)"/>
<path d="M1073.78 61.9907L1081 56.0827C1075.39 55.4496 1073.09 58.5793 1072.15 61.0564C1067.77 59.1948 1063 61.6345 1063 61.6345L1077.44 67C1076.71 65.0085 1075.44 63.2708 1073.78 61.9907V61.9907Z" fill="#3F3D56"/>
<path d="M1192.78 34.5354L1200 28.0903C1194.39 27.3996 1192.09 30.8137 1191.15 33.5161C1186.77 31.4853 1182 34.1467 1182 34.1467L1196.44 40C1195.71 37.8274 1194.44 35.9318 1192.78 34.5354V34.5354Z" fill="#3F3D56"/>
<path d="M1110.78 22.9907L1118 17.0827C1112.39 16.4496 1110.09 19.5793 1109.15 22.0564C1104.77 20.1948 1100 22.6345 1100 22.6345L1114.44 28C1113.71 26.0085 1112.44 24.2708 1110.78 22.9907V22.9907Z" fill="#3F3D56"/>
<defs>
<filter id="filter0_d" x="-513" y="38" width="2339" height="2144" filterUnits="userSpaceOnUse" color-interpolation-filters="sRGB">
<feFlood flood-opacity="0" result="BackgroundImageFix"/>
<feColorMatrix in="SourceAlpha" type="matrix" values="0 0 0 0 0 0 0 0 0 0 0 0 0 0 0 0 0 0 127 0"/>
<feOffset dy="4"/>
<feGaussianBlur stdDeviation="2"/>
<feColorMatrix type="matrix" values="0 0 0 0 0 0 0 0 0 0 0 0 0 0 0 0 0 0 0.25 0"/>
<feBlend mode="normal" in2="BackgroundImageFix" result="effect1_dropShadow"/>
<feBlend mode="normal" in="SourceGraphic" in2="effect1_dropShadow" result="shape"/>
</filter>
<linearGradient id="paint0_linear" x1="-509" y1="545.819" x2="1949.63" y2="1107.9" gradientUnits="userSpaceOnUse">
<stop offset="0.153028" stop-color="#D43BBD"/>
<stop offset="0.888087" stop-color="#7C26A4"/>
</linearGradient>
<linearGradient id="paint1_linear" x1="1236.87" y1="711.704" x2="1353.28" y2="818.058" gradientUnits="userSpaceOnUse">
<stop offset="0.00537634" stop-color="#FEA7AF"/>
<stop offset="0.9946" stop-color="#EA47AC" stop-opacity="0"/>
</linearGradient>
</defs>
</svg>
