<svg width="87" height="189" viewBox="0 0 87 189" fill="none" xmlns="http://www.w3.org/2000/svg">
<path d="M27.8934 84.3032C30.4834 82.7432 33.8535 83.5732 35.4135 86.1732C36.9735 88.7632 36.1435 92.1332 33.5435 93.6932C30.9535 95.2532 27.5834 94.4232 26.0234 91.8232C24.4634 89.2432 25.3034 85.8732 27.8934 84.3032Z" fill="#FCC9A7"/>
<path d="M34.1035 84.6932C33.9235 84.5532 24.3035 73.2532 24.3035 73.2532L20.3735 78.0132L29.0535 89.0032L34.1035 84.6932Z" fill="#FCC9A7"/>
<path d="M25.9935 172.793L23.5435 183.983L15.8035 182.823L18.3035 171.783L25.9935 172.793Z" fill="#FCC9A7"/>
<path d="M60.6936 171.793L60.7836 183.253L52.9937 183.833L52.9736 172.513L60.6936 171.793Z" fill="#FCC9A7"/>
<path d="M24.5235 182.163C24.3635 181.693 23.7935 181.493 23.3835 181.793C22.5835 182.373 21.1735 183.053 19.1335 182.813C17.0135 182.563 16.2535 181.443 15.9935 180.643C15.8535 180.223 15.4035 180.003 14.9935 180.163L1.86354 185.423C1.06354 185.743 0.423517 186.363 0.0935171 187.153C-0.226483 187.893 0.313546 188.723 1.12355 188.723L23.4335 188.883C24.3135 188.893 25.0135 188.163 24.9735 187.283L24.7835 182.973C24.7835 182.903 24.7635 182.833 24.7435 182.763L24.5235 182.163Z" fill="#0C0C0C"/>
<path d="M52.2035 182.163C52.3635 181.693 52.9436 181.493 53.3436 181.793C54.1436 182.373 55.5536 183.053 57.5936 182.813C59.7136 182.563 60.4636 181.443 60.7336 180.643C60.8736 180.223 61.3236 180.003 61.7336 180.163L74.8636 185.423C75.6636 185.743 76.3035 186.363 76.6335 187.153C76.9535 187.893 76.4136 188.723 75.6036 188.723L53.2936 188.883C52.4136 188.893 51.7136 188.163 51.7536 187.283L51.9435 182.973C51.9435 182.903 51.9636 182.833 51.9836 182.763L52.2035 182.163Z" fill="#0C0C0C"/>
<path d="M52.1036 28.1232L45.1736 28.7232L34.1536 34.9332V79.0932H63.5636V34.9332L52.1036 28.1232Z" fill="#54585A"/>
<path d="M50.2034 32.5733H48.2134C46.1534 32.5733 44.4834 30.9033 44.4834 28.8433V21.3633H53.9234V28.8433C53.9334 30.9033 52.2634 32.5733 50.2034 32.5733Z" fill="#FCC9A7"/>
<path d="M44.4834 25.1733C44.4834 25.1733 45.9534 28.1233 49.2934 28.1233C52.6334 28.1233 53.9234 25.1133 53.9234 25.1133L44.4834 25.1733Z" fill="#F4BE9A"/>
<path d="M49.3135 26.3932H49.0035C44.1935 26.3932 40.2335 22.5932 40.0435 17.7832L39.8735 12.9932C39.6735 7.90322 43.7435 3.67322 48.8335 3.67322H49.4835C53.3335 3.67322 58.6435 7.90322 58.4435 12.9932L58.2735 17.7832C58.0835 22.5932 54.1235 26.3932 49.3135 26.3932Z" fill="#FCC9A7"/>
<path d="M42.7936 16.6232C42.9036 18.2432 41.6837 19.6432 40.0637 19.7532C38.4437 19.8632 37.0436 18.6432 36.9336 17.0232C36.8236 15.4032 38.0436 14.0032 39.6636 13.8932C41.2836 13.7932 42.6836 15.0132 42.7936 16.6232Z" fill="#FCC9A7"/>
<path d="M61.3735 16.6232C61.4835 18.2432 60.2635 19.6432 58.6435 19.7532C57.0235 19.8632 55.6235 18.6432 55.5135 17.0232C55.4035 15.4032 56.6235 14.0032 58.2435 13.8932C59.8635 13.7932 61.2635 15.0132 61.3735 16.6232Z" fill="#FCC9A7"/>
<path d="M34.1535 78.8832L15.8635 176.113L26.3735 176.013L53.1135 79.0732L34.1535 78.8832Z" fill="#0C0C0C"/>
<path d="M63.5635 79.0933L62.4135 176.213H51.3035L46.8735 79.7033L63.5635 79.0933Z" fill="#0C0C0C"/>
<path d="M34.1536 34.9332C34.1536 34.9332 9.5936 49.7532 3.6236 60.0332C2.4536 62.0432 3.97358 64.6432 6.03358 65.7132C8.31358 66.9032 11.1236 66.0932 12.4336 63.8832L35.1536 50.7032C35.1636 50.7032 34.1536 39.3832 34.1536 34.9332Z" fill="#54585A"/>
<path d="M39.3636 7.55322L40.0536 14.9132H41.1636L41.3036 11.0532C41.3036 11.0532 41.8836 9.57322 44.4736 6.39322C44.4736 6.39322 46.1635 10.7132 56.6335 9.87322L57.2436 14.7532L58.3235 14.6332L58.8936 9.39322C59.2736 7.62322 59.4036 5.97322 59.0836 4.19322C58.4336 0.59322 55.5036 -1.39678 47.0436 1.14322C46.3436 1.35322 47.7736 1.21322 47.0436 1.14322C44.6236 0.873221 38.2436 0.843221 39.3636 7.55322Z" fill="#2E2A33"/>
<path d="M51.8234 78.3932L49.4434 103.853C49.3534 104.813 50.0034 105.683 50.9534 105.863L80.1534 111.443C81.2234 111.653 82.2434 110.893 82.3634 109.813L85.0334 85.6132C85.1334 84.6732 84.5234 83.8032 83.5934 83.5832L54.1034 76.7432C53.0034 76.4832 51.9334 77.2632 51.8234 78.3932Z" fill="#AFAFAF"/>
<path d="M53.4434 78.8431L51.0635 104.303C50.9735 105.263 51.6234 106.133 52.5734 106.313L81.7734 111.893C82.8434 112.093 83.8635 111.343 83.9835 110.263L86.6535 86.0631C86.7535 85.1231 86.1435 84.2531 85.2135 84.0331L55.7235 77.1931C54.6335 76.9331 53.5534 77.7131 53.4434 78.8431Z" fill="#D1D1D1"/>
<path d="M68.6436 104.833C71.5436 105.693 73.2036 108.743 72.3436 111.643C71.4836 114.543 68.4336 116.203 65.5336 115.353C62.6336 114.493 60.9736 111.443 61.8236 108.543C62.6936 105.633 65.7336 103.973 68.6436 104.833Z" fill="#FCC9A7"/>
<path d="M72.5536 109.673C72.5336 109.443 71.5936 94.1832 71.5936 94.1832L66.4036 95.1232L67.0936 108.133L72.5536 109.673Z" fill="#FCC9A7"/>
<path d="M63.5635 34.9332C63.5635 34.9332 71.4235 40.5632 71.9235 48.5832L74.3835 67.3332C74.5235 68.4332 74.5835 69.5332 74.5435 70.6432L73.5935 99.1632H62.8035L62.6035 68.2932L63.5635 34.9332Z" fill="#54585A"/>
<path d="M46.0035 28.1232C45.1635 28.7332 41.1135 31.0132 41.1135 31.0132C41.1135 31.0132 41.2235 36.7132 49.8035 36.2532C57.3535 35.8532 57.3035 31.2232 57.3035 31.2232L52.0935 28.1232H46.0035Z" fill="#FCC9A7"/>
<path d="M15.7236 56.3333L30.4036 79.7933L23.4435 86.3832L3.66357 63.2933L15.7236 56.3333Z" fill="#54585A"/>
<path d="M62.5936 78.7832V68.2832L60.1536 49.1332" stroke="#424647" stroke-width="0.7693" stroke-miterlimit="10" stroke-linecap="round" stroke-linejoin="round"/>
</svg>
