<svg width="1403" height="953" viewBox="0 0 1403 953" fill="none" xmlns="http://www.w3.org/2000/svg">
<g filter="url(#filter0_d)">
<path d="M308.362 528.816C378.72 400.645 544.459 356.226 669.463 432.04C734.122 471.254 813.815 479.649 884.981 454.065L940.314 434.173C1060.35 391.021 1189.98 469.056 1208.94 595.198C1219.81 667.522 1269.24 728.529 1337.85 753.859C1467.7 801.8 1511.09 963.763 1422.6 1070.22C1375.85 1126.47 1363.54 1204.02 1390.28 1272.09C1436.92 1390.81 1363.66 1523.22 1238.13 1545.88L1180.27 1556.33C1105.85 1569.76 1041.03 1616.89 1004.64 1683.18C934.28 1811.35 768.541 1855.77 643.537 1779.96C578.879 1740.75 499.186 1732.35 428.019 1757.93L372.687 1777.83C252.649 1820.98 123.019 1742.94 104.057 1616.8C93.1856 1544.48 43.758 1483.47 -24.8482 1458.14C-154.697 1410.2 -198.086 1248.24 -109.599 1141.78C-62.8469 1085.53 -50.5388 1007.98 -77.2784 939.91C-123.915 821.185 -50.6617 688.776 74.8656 666.117L132.729 655.671C207.15 642.237 271.97 595.113 308.362 528.816Z" fill="url(#paint0_linear)"/>
<path d="M1409.9 890.601L1403.88 879.172L1392.68 872.827L1404.05 866.799L1410.39 855.598L1416.42 866.973L1427.67 873.319L1416.25 879.346L1409.9 890.601Z" fill="white"/>
<path opacity="0.29" d="M1296.34 880.468L1293.75 875.547L1288.91 872.873L1293.83 870.282L1296.55 865.49L1299.09 870.356L1303.93 873.084L1299.01 875.62L1296.34 880.468Z" fill="white"/>
<path opacity="0.29" d="M627.754 531.06L625.164 526.138L620.318 523.465L625.238 520.874L627.964 516.082L630.5 520.948L635.346 523.676L630.427 526.212L627.754 531.06Z" fill="white"/>
<path opacity="0.29" d="M906.442 855.151L903.853 850.229L899.007 847.556L903.927 844.965L906.653 840.172L909.189 845.039L914.034 847.767L909.115 850.303L906.442 855.151Z" fill="white"/>
<path opacity="0.29" d="M1109.83 578.902L1107.24 573.98L1102.4 571.307L1107.32 568.716L1110.04 563.923L1112.58 568.79L1117.42 571.518L1112.5 574.054L1109.83 578.902Z" fill="white"/>
<path opacity="0.29" d="M278.94 722.228L276.35 717.306L271.504 714.633L276.424 712.042L279.15 707.249L281.687 712.116L286.532 714.844L281.613 717.38L278.94 722.228Z" fill="white"/>
</g>
<path d="M975.784 198.991L983 193.083C977.394 192.45 975.09 195.579 974.148 198.056C969.768 196.195 965 198.634 965 198.634L979.439 204C978.71 202.008 977.442 200.271 975.784 198.991V198.991Z" fill="#3F3D56"/>
<path d="M1094.78 171.535L1102 165.09C1096.39 164.4 1094.09 167.814 1093.15 170.516C1088.77 168.485 1084 171.147 1084 171.147L1098.44 177C1097.71 174.827 1096.44 172.932 1094.78 171.535V171.535Z" fill="#3F3D56"/>
<path d="M1012.78 159.991L1020 154.083C1014.39 153.45 1012.09 156.579 1011.15 159.056C1006.77 157.195 1002 159.634 1002 159.634L1016.44 165C1015.71 163.008 1014.44 161.271 1012.78 159.991V159.991Z" fill="#3F3D56"/>
<path d="M448.563 397.08C444.427 396.619 440.428 395.319 436.811 393.26L437.153 392.717C440.694 394.73 444.609 395.999 448.657 396.445C454.786 397.11 463.806 395.944 471.972 386.616C487.864 368.464 504.043 365.618 504.204 365.591L504.308 366.224C504.149 366.25 488.196 369.057 472.454 387.039C466.023 394.383 459.065 396.777 453.335 397.177C451.744 397.287 450.147 397.254 448.563 397.08Z" fill="#2F2E41"/>
<path d="M496.63 380.238C498.749 380.09 500.346 378.252 500.198 376.134C500.05 374.015 498.213 372.417 496.094 372.565C493.975 372.713 492.378 374.551 492.526 376.669C492.673 378.788 494.511 380.386 496.63 380.238Z" fill="#2F2E41"/>
<path d="M470.706 400.039C472.824 399.891 474.422 398.053 474.274 395.934C474.126 393.816 472.288 392.218 470.17 392.366C468.051 392.514 466.453 394.351 466.601 396.47C466.749 398.589 468.587 400.187 470.706 400.039Z" fill="#2F2E41"/>
<path d="M454.476 271.182C451.254 275.181 461.001 283.66 461.001 283.66C461.001 283.66 442.769 288.06 444.22 287.769C445.671 287.478 443.828 272.012 443.828 272.012C443.828 272.012 457.699 267.183 454.476 271.182Z" fill="#A0616A"/>
<path d="M470.124 310.483L454.666 319.791L446.309 325.388C446.309 325.388 436.95 339.031 435.57 346.825C434.191 354.619 445.384 368.065 446.642 369.447C447.29 370.152 447.879 370.908 448.402 371.709C448.843 372.275 452.236 371.268 455.944 370.198C459.652 369.128 454.999 363.85 454.999 363.85C454.999 363.85 449.337 351.911 448.96 351.659C448.608 351.425 447.323 349.381 448.076 348.395C448.785 347.521 449.31 346.512 449.618 345.429C449.871 344.498 450.262 343.611 450.779 342.797C450.779 342.797 464.458 330.007 468.708 325.681C472.957 321.355 485.174 323.034 485.174 323.034C485.174 323.034 481.012 345.235 479.692 346.807C478.373 348.379 478.311 349.699 479.129 352.15C479.947 354.601 488.179 351.643 488.179 351.643L490.69 342.969C490.69 342.969 494.959 331.654 496.903 320.151C497.874 314.4 495.029 311.211 491.941 309.46C488.974 307.818 485.491 307.374 482.207 308.22L467.57 311.854L477.539 306.709L470.124 310.483Z" fill="#2F2E41"/>
<path d="M409.528 293.537L389.979 288.957C389.979 288.957 381.553 279.533 385.072 277.52C388.591 275.508 393.875 285.562 393.875 285.562L407.262 285.493L409.528 293.537Z" fill="#A0616A"/>
<path d="M489.247 277.559L505.521 265.799C505.521 265.799 509.664 253.856 505.642 253.355C501.619 252.853 500.618 264.167 500.618 264.167L488.238 269.263L489.247 277.559Z" fill="#A0616A"/>
<path d="M491.596 265.385L492.796 277.892L464.48 285.017C469.328 293.746 468.974 304.091 479.904 307.85L445.344 327.852C445.977 313.981 438.602 304.081 431.486 291.631C423.722 289.414 415.067 292.041 406.033 296.732L403.451 283.848L442.856 278.238L449.535 280.271L456.306 276.85C466.345 273.088 480.661 266.269 491.596 265.385Z" fill="#AB21CF"/>
<path d="M479.694 351.709C478.878 352.527 478.503 358.812 478.63 361.075C478.756 363.337 481.773 363.713 483.408 363.713C485.042 363.712 484.916 364.718 486.048 365.471C487.18 366.225 490.699 365.846 495.224 363.959C499.748 362.072 491.639 357.487 490.947 357.299C490.256 357.11 486.922 350.261 486.922 350.261C486.922 350.261 480.511 350.892 479.694 351.709Z" fill="#2F2E41"/>
<path d="M455.344 367.702C456.413 368.142 459.181 373.797 459.936 375.934C460.691 378.071 458.052 379.58 456.544 380.209C455.036 380.838 455.539 381.718 454.785 382.85C454.031 383.981 450.638 384.988 445.735 384.99C440.833 384.993 446.549 377.637 447.115 377.196C447.68 376.756 448.117 369.151 448.117 369.151C448.117 369.151 454.276 367.263 455.344 367.702Z" fill="#2F2E41"/>
<path d="M448.998 276.363C453.235 276.067 456.43 272.393 456.134 268.156C455.838 263.919 452.164 260.724 447.927 261.02C443.69 261.316 440.495 264.99 440.791 269.227C441.087 273.464 444.761 276.659 448.998 276.363Z" fill="#A0616A"/>
<path d="M439.542 268.541C439.018 267.657 438.687 266.672 438.569 265.651C438.452 264.63 438.551 263.596 438.86 262.616C439.484 260.704 441.027 258.72 444.594 257.91C452.379 256.144 456.951 261.363 456.857 263.182C456.763 265 456.011 269.432 456.011 269.432C456.011 269.432 456.195 265.273 454.159 265.268C452.124 265.264 444.227 265.198 442.384 267.422C441.852 268.029 441.491 268.765 441.337 269.556C441.183 270.347 441.241 271.165 441.506 271.927L439.542 268.541Z" fill="#2F2E41"/>
<defs>
<filter id="filter0_d" x="-513" y="38" width="2339" height="2144" filterUnits="userSpaceOnUse" color-interpolation-filters="sRGB">
<feFlood flood-opacity="0" result="BackgroundImageFix"/>
<feColorMatrix in="SourceAlpha" type="matrix" values="0 0 0 0 0 0 0 0 0 0 0 0 0 0 0 0 0 0 127 0"/>
<feOffset dy="4"/>
<feGaussianBlur stdDeviation="2"/>
<feColorMatrix type="matrix" values="0 0 0 0 0 0 0 0 0 0 0 0 0 0 0 0 0 0 0.25 0"/>
<feBlend mode="normal" in2="BackgroundImageFix" result="effect1_dropShadow"/>
<feBlend mode="normal" in="SourceGraphic" in2="effect1_dropShadow" result="shape"/>
</filter>
<linearGradient id="paint0_linear" x1="-509" y1="545.818" x2="1949.63" y2="1107.9" gradientUnits="userSpaceOnUse">
<stop offset="0.153028" stop-color="#D43BBD"/>
<stop offset="0.888087" stop-color="#7C26A4"/>
</linearGradient>
</defs>
</svg>
