<svg width="1385" height="988" viewBox="0 0 1385 988" fill="none" xmlns="http://www.w3.org/2000/svg">
<path d="M479.428 175.681C521.523 99.0115 620.675 72.4437 695.465 117.794V117.794C734.149 141.25 781.824 146.272 824.398 130.971L857.538 119.06C929.338 93.2531 1006.88 139.933 1018.22 215.382V215.382C1024.73 258.646 1054.3 295.14 1095.34 310.29V310.29C1173.02 338.965 1198.98 435.852 1146.05 499.525V499.525C1118.08 533.167 1110.72 579.558 1126.71 620.278V620.278C1154.61 691.291 1110.8 770.487 1035.72 784.038L1001.06 790.292C956.542 798.327 917.765 826.514 895.992 866.17V866.17C853.897 942.839 754.745 969.407 679.955 924.057V924.057C641.271 900.601 593.595 895.579 551.022 910.88L517.882 922.791C446.082 948.598 368.541 901.918 357.198 826.469V826.469C350.693 783.205 321.122 746.711 280.079 731.561V731.561C202.398 702.886 176.437 605.999 229.373 542.326V542.326C257.342 508.684 264.705 462.293 248.706 421.573V421.573C220.806 350.56 264.618 271.364 339.702 257.813L374.357 251.559C418.878 243.524 457.655 215.336 479.428 175.681V175.681Z" fill="url(#paint0_linear)"/>
<path d="M696.451 661.084L692.846 654.248L686.147 650.452L692.95 646.847L696.745 640.147L700.351 646.951L707.082 650.747L700.247 654.352L696.451 661.084Z" fill="white"/>
<path d="M1138.45 392.084L1134.85 385.248L1128.15 381.452L1134.95 377.847L1138.75 371.147L1142.35 377.951L1149.08 381.747L1142.25 385.352L1138.45 392.084Z" fill="white"/>
<path d="M700.451 274.084L696.846 267.248L690.147 263.452L696.95 259.847L700.745 253.147L704.351 259.951L711.082 263.747L704.247 267.352L700.451 274.084Z" fill="white"/>
<path d="M251.451 640.084L247.846 633.248L241.147 629.452L247.95 625.847L251.745 619.147L255.351 625.951L262.082 629.747L255.247 633.352L251.451 640.084Z" fill="white"/>
<path d="M706.451 885.084L702.846 878.248L696.147 874.452L702.95 870.847L706.745 864.147L710.351 870.951L717.082 874.747L710.247 878.352L706.451 885.084Z" fill="white"/>
<path opacity="0.29" d="M735.512 536.023L733.962 533.079L731.063 531.48L734.006 529.93L735.637 527.063L737.155 529.974L740.054 531.606L737.111 533.123L735.512 536.023Z" fill="white"/>
<path opacity="0.29" d="M1070.51 386.023L1068.96 383.079L1066.06 381.48L1069.01 379.93L1070.64 377.063L1072.15 379.974L1075.05 381.606L1072.11 383.123L1070.51 386.023Z" fill="white"/>
<path opacity="0.29" d="M1103.51 661.023L1101.96 658.079L1099.06 656.48L1102.01 654.93L1103.64 652.063L1105.15 654.974L1108.05 656.606L1105.11 658.123L1103.51 661.023Z" fill="white"/>
<path opacity="0.29" d="M1074.51 732.023L1072.96 729.079L1070.06 727.48L1073.01 725.93L1074.64 723.063L1076.15 725.974L1079.05 727.606L1076.11 729.123L1074.51 732.023Z" fill="white"/>
<path opacity="0.29" d="M1094.51 502.023L1092.96 499.079L1090.06 497.48L1093.01 495.93L1094.64 493.063L1096.15 495.974L1099.05 497.606L1096.11 499.123L1094.51 502.023Z" fill="white"/>
<path opacity="0.29" d="M683.512 840.023L681.962 837.079L679.063 835.48L682.006 833.93L683.637 831.063L685.155 833.974L688.054 835.606L685.111 837.123L683.512 840.023Z" fill="white"/>
<path opacity="0.29" d="M291.512 707.023L289.962 704.079L287.063 702.48L290.006 700.93L291.637 698.063L293.155 700.974L296.054 702.606L293.11 704.123L291.512 707.023Z" fill="white"/>
<path opacity="0.29" d="M440.512 532.023L438.962 529.079L436.063 527.48L439.006 525.93L440.637 523.063L442.155 525.974L445.054 527.606L442.111 529.123L440.512 532.023Z" fill="white"/>
<path opacity="0.29" d="M282.512 364.023L280.962 361.079L278.063 359.48L281.006 357.93L282.637 355.063L284.155 357.974L287.054 359.606L284.11 361.123L282.512 364.023Z" fill="white"/>
<path opacity="0.29" d="M706.512 483.023L704.962 480.079L702.063 478.48L705.006 476.93L706.637 474.063L708.155 476.974L711.054 478.606L708.111 480.123L706.512 483.023Z" fill="white"/>
<path opacity="0.29" d="M670.512 177.023L668.962 174.079L666.063 172.48L669.006 170.93L670.637 168.063L672.155 170.974L675.054 172.606L672.111 174.123L670.512 177.023Z" fill="white"/>
<path opacity="0.29" d="M617.512 521.023L615.962 518.079L613.063 516.48L616.006 514.93L617.637 512.063L619.155 514.974L622.054 516.606L619.111 518.123L617.512 521.023Z" fill="white"/>
<path opacity="0.29" d="M706.512 743.023L704.962 740.079L702.063 738.48L705.006 736.93L706.637 734.063L708.155 736.974L711.054 738.606L708.111 740.123L706.512 743.023Z" fill="white"/>
<path d="M384.257 547.604L288.704 457.336C288.166 456.832 288.128 455.989 288.631 455.451C289.135 454.912 289.953 454.874 290.517 455.353L389.116 542.267C390.634 543.603 390.75 545.91 389.391 547.403C388.031 548.921 385.7 548.987 384.257 547.604Z" fill="url(#paint1_linear)"/>
<defs>
<linearGradient id="paint0_linear" x1="-9.58044" y1="185.851" x2="1461.33" y2="522.192" gradientUnits="userSpaceOnUse">
<stop offset="0.153028" stop-color="#D43BBD"/>
<stop offset="0.888087" stop-color="#7C26A4"/>
</linearGradient>
<linearGradient id="paint1_linear" x1="288.684" y1="455.395" x2="389.396" y2="547.409" gradientUnits="userSpaceOnUse">
<stop offset="0.00537634" stop-color="#FEA7AF"/>
<stop offset="0.9946" stop-color="#EA47AC" stop-opacity="0"/>
</linearGradient>
</defs>
</svg>
