<svg width="108" height="140" viewBox="0 0 108 140" fill="none" xmlns="http://www.w3.org/2000/svg">
<g clip-path="url(#clip0)">
<path d="M54 72.7757C74.0847 72.7757 90.3666 56.4843 90.3666 36.3879C90.3666 16.2914 74.0847 0 54 0C33.9152 0 17.6333 16.2914 17.6333 36.3879C17.6333 56.4843 33.9152 72.7757 54 72.7757Z" fill="#FEFEFE"/>
<path d="M59.2348 48.5185C59.2348 49.8882 56.8913 50.9989 53.9999 50.9989C51.1086 50.9989 48.7651 49.8882 48.7651 48.5185C48.7651 47.1489 51.1086 46.0361 53.9999 46.0361C56.8913 46.0361 59.2348 47.1387 59.2348 48.5185Z" fill="white"/>
<path d="M39.1226 32.8051C41.1003 32.8051 42.7035 31.2009 42.7035 29.2221C42.7035 27.2433 41.1003 25.6392 39.1226 25.6392C37.145 25.6392 35.5417 27.2433 35.5417 29.2221C35.5417 31.2009 37.145 32.8051 39.1226 32.8051Z" fill="#383F4D"/>
<path d="M68.8775 32.8051C70.8551 32.8051 72.4584 31.2009 72.4584 29.2221C72.4584 27.2433 70.8551 25.6392 68.8775 25.6392C66.8998 25.6392 65.2966 27.2433 65.2966 29.2221C65.2966 31.2009 66.8998 32.8051 68.8775 32.8051Z" fill="#383F4D"/>
<path d="M40.2245 29.2198C40.8331 29.2198 41.3265 28.7262 41.3265 28.1172C41.3265 27.5083 40.8331 27.0146 40.2245 27.0146C39.6159 27.0146 39.1226 27.5083 39.1226 28.1172C39.1226 28.7262 39.6159 29.2198 40.2245 29.2198Z" fill="white"/>
<path d="M69.9794 29.2198C70.588 29.2198 71.0814 28.7262 71.0814 28.1172C71.0814 27.5083 70.588 27.0146 69.9794 27.0146C69.3708 27.0146 68.8774 27.5083 68.8774 28.1172C68.8774 28.7262 69.3708 29.2198 69.9794 29.2198Z" fill="white"/>
<path d="M75.4892 21.5017H62.5488C61.6729 21.5044 60.8335 21.8537 60.2141 22.4735C59.5947 23.0932 59.2456 23.9331 59.2429 24.8095V33.6303C59.2456 34.5068 59.5947 35.3466 60.2141 35.9663C60.8335 36.5861 61.6729 36.9355 62.5488 36.9381H75.4892C76.3652 36.9355 77.2045 36.5861 77.8239 35.9663C78.4433 35.3466 78.7924 34.5068 78.7951 33.6303V24.8095C78.7924 23.9331 78.4433 23.0932 77.8239 22.4735C77.2045 21.8537 76.3652 21.5044 75.4892 21.5017V21.5017ZM76.0392 31.4271C76.0365 32.3036 75.6874 33.1434 75.068 33.7632C74.4486 34.3829 73.6093 34.7323 72.7333 34.7349H65.2966C64.4207 34.7323 63.5813 34.3829 62.9619 33.7632C62.3425 33.1434 61.9934 32.3036 61.9907 31.4271V27.0167C61.9934 26.1403 62.3425 25.3005 62.9619 24.6807C63.5813 24.061 64.4207 23.7116 65.2966 23.7089H72.7353C73.6106 23.7121 74.4491 24.0614 75.068 24.6807C75.6869 25.3 76.036 26.139 76.0392 27.0147V31.4271Z" fill="#69F0AE"/>
<path d="M29.2048 24.8095V33.6303C29.2075 34.5068 29.5567 35.3466 30.176 35.9663C30.7954 36.5861 31.6348 36.9355 32.5107 36.9381H45.4511C46.3271 36.9355 47.1664 36.5861 47.7858 35.9663C48.4052 35.3466 48.7544 34.5068 48.757 33.6303V24.8095C48.7544 23.9331 48.4052 23.0932 47.7858 22.4735C47.1664 21.8537 46.3271 21.5044 45.4511 21.5017H32.5107C31.6348 21.5044 30.7954 21.8537 30.176 22.4735C29.5567 23.0932 29.2075 23.9331 29.2048 24.8095V24.8095ZM31.9607 27.0147C31.9634 26.1383 32.3126 25.2984 32.932 24.6787C33.5514 24.0589 34.3907 23.7096 35.2666 23.7069H42.7053C43.5813 23.7096 44.4206 24.0589 45.04 24.6787C45.6594 25.2984 46.0086 26.1383 46.0112 27.0147V31.4251C46.0086 32.3016 45.6594 33.1414 45.04 33.7611C44.4206 34.3809 43.5813 34.7303 42.7053 34.7329H35.2646C34.3893 34.7297 33.5509 34.3804 32.932 33.7611C32.313 33.1419 31.9639 32.3029 31.9607 31.4271V27.0147Z" fill="#69F0AE"/>
<path d="M58.7132 30.3307C57.3517 29.4439 55.7621 28.9718 54.1375 28.9718C52.5129 28.9718 50.9233 29.4439 49.5619 30.3307C48.7976 30.8203 47.7563 30.9235 47.1355 30.353L46.3571 29.5741C45.7505 29.0116 46.0922 27.6501 47.2973 26.8651C49.331 25.5421 51.7047 24.8379 54.1304 24.8379C56.5562 24.8379 58.9299 25.5421 60.9636 26.8651C62.1767 27.6501 62.5164 29.0137 61.9038 29.5741L61.1334 30.3469C60.5208 30.9215 59.4795 30.8203 58.7132 30.3307Z" fill="#69F0AE"/>
<path opacity="0.2" d="M50.3423 63.2104C50.6173 62.0896 51.9275 61.5919 53.0719 61.4381C54.7703 61.2014 56.7842 61.4381 57.7224 62.8806" fill="#BF655B"/>
<path d="M92.071 29.4971H90.0369C88.6969 29.4971 87.6106 30.584 87.6106 31.9248V43.6104C87.6106 44.9512 88.6969 46.0381 90.0369 46.0381H92.071C93.411 46.0381 94.4973 44.9512 94.4973 43.6104V31.9248C94.4973 30.584 93.411 29.4971 92.071 29.4971Z" fill="white"/>
<path d="M17.9609 29.4951H15.9268C14.5868 29.4951 13.5005 30.5821 13.5005 31.9229V43.6084C13.5005 44.9492 14.5868 46.0362 15.9268 46.0362H17.9609C19.3009 46.0362 20.3872 44.9492 20.3872 43.6084V31.9229C20.3872 30.5821 19.3009 29.4951 17.9609 29.4951Z" fill="white"/>
<path d="M43.2209 89.0677L64.7445 89.0416V69.7451C64.7418 68.8686 64.3927 68.0288 63.7733 67.409C63.1539 66.7893 62.3146 66.4399 61.4386 66.4373H46.5612C45.6852 66.4399 44.8459 66.7893 44.2265 67.409C43.6071 68.0288 43.2579 68.8686 43.2553 69.7451V89.0416" fill="white"/>
<path opacity="0.2" d="M41.6135 8.71349C44.0399 8.16927 46.3833 10.0002 48.8662 10.0568C50.8053 10.1014 52.6068 9.06147 54.5277 8.81869C56.4485 8.57592 58.3249 9.12216 60.2194 9.3973C62.114 9.67245 64.2269 9.61378 65.6989 8.38574" fill="#BF655B"/>
<path opacity="0.2" d="M41.6135 12.0213C44.0399 11.4771 46.3833 13.3081 48.8662 13.3647C50.8053 13.4092 52.6068 12.3693 54.5277 12.1266C56.4485 11.8838 58.3249 12.43 60.2194 12.7052C62.114 12.9803 64.2269 12.9216 65.6989 11.6936" fill="#BF655B"/>
<path d="M43.2554 84.5908H39.258C17.6657 84.5908 0 102.267 0 123.872V136.692C0.00266654 137.569 0.35182 138.409 0.971215 139.028C1.59061 139.648 2.42992 139.997 3.30588 140H104.694C105.57 139.997 106.409 139.648 107.029 139.028C107.648 138.409 107.997 137.569 108 136.692V123.872C108 102.267 90.3343 84.5908 68.742 84.5908H64.7446C57.2581 86.0449 50.2096 86.0818 43.6255 84.6169" fill="url(#paint0_linear)"/>
</g>
<defs>
<linearGradient id="paint0_linear" x1="54" y1="84.5908" x2="54" y2="140" gradientUnits="userSpaceOnUse">
<stop stop-color="#691375"/>
<stop offset="1" stop-color="#EC4DF1" stop-opacity="0"/>
</linearGradient>
<clipPath id="clip0">
<rect width="108" height="140" fill="white"/>
</clipPath>
</defs>
</svg>
