<svg width="831" height="864" viewBox="0 0 831 864" fill="none" xmlns="http://www.w3.org/2000/svg">
<mask id="mask0" mask-type="alpha" maskUnits="userSpaceOnUse" x="16" y="8" width="799" height="856">
<rect x="16" y="8" width="799" height="855.001" rx="32" fill="white"/>
</mask>
<g mask="url(#mask0)">
<path d="M301.96 -140.739C360.725 -212.332 470.276 -212.332 529.041 -140.739V-140.739C560.127 -102.866 608.057 -82.9877 656.824 -87.7361V-87.7361C748.884 -96.7001 826.2 -18.9398 817.282 73.1245V73.1245C812.555 121.928 832.378 170.094 870.198 201.299V201.299C941.707 260.302 941.707 369.884 870.198 428.887V428.887C832.378 460.092 812.555 508.258 817.282 557.061V557.061C826.2 649.126 748.884 726.886 656.824 717.922V717.922C608.057 713.173 560.127 733.052 529.041 770.925V770.925C470.276 842.518 360.725 842.518 301.96 770.925V770.925C270.873 733.052 222.943 713.173 174.177 717.922V717.922C82.1167 726.886 4.80052 649.126 13.7183 557.061V557.061C18.4456 508.258 -1.37761 460.092 -39.1974 428.887V428.887C-110.707 369.884 -110.707 260.302 -39.1974 201.299V201.299C-1.37761 170.094 18.4456 121.928 13.7183 73.1246V73.1246C4.80052 -18.9398 82.1167 -96.7001 174.177 -87.7361V-87.7361C222.943 -82.9877 270.873 -102.866 301.96 -140.739V-140.739Z" fill="url(#paint0_linear)"/>
</g>
<defs>
<linearGradient id="paint0_linear" x1="-177.112" y1="-279.065" x2="1252.93" y2="369.179" gradientUnits="userSpaceOnUse">
<stop stop-color="#DE3DBF"/>
<stop offset="1" stop-color="#67219E"/>
</linearGradient>
</defs>
</svg>
