<svg width="414" height="795" viewBox="0 0 414 795" fill="none" xmlns="http://www.w3.org/2000/svg">
<path d="M214.434 791.082C209.456 791.526 204.449 791.535 199.469 791.109L-511.961 730.274L-1235.26 680.162C-1246.82 679.361 -1258.1 676.232 -1268.42 670.962L-1528.85 537.986L-1667.68 480.311C-1738.2 451.011 -1738.39 351.168 -1667.97 321.612L-1529.35 263.432L-1269.41 129.508C-1259.11 124.2 -1247.84 121.03 -1236.28 120.187L-513.168 67.4406L198.036 4.01428C203.014 3.57033 208.021 3.56121 213.001 3.98702L924.43 64.8222L1647.73 114.934C1659.29 115.735 1670.57 118.864 1680.89 124.134L1941.32 257.11L2080.15 314.785C2150.67 344.085 2150.86 443.928 2080.44 473.484L1941.82 531.664L1681.88 665.588C1671.58 670.896 1660.31 674.066 1648.75 674.909L925.638 727.655L214.434 791.082Z" fill="url(#paint0_linear)"/>
<defs>
<linearGradient id="paint0_linear" x1="2271.03" y1="787.989" x2="1366.01" y2="-1354.81" gradientUnits="userSpaceOnUse">
<stop stop-color="#DE3DBF"/>
<stop offset="1" stop-color="#67219E"/>
</linearGradient>
</defs>
</svg>
