<svg width="831" height="611" viewBox="0 0 831 611" fill="none" xmlns="http://www.w3.org/2000/svg">
<mask id="mask0" mask-type="alpha" maskUnits="userSpaceOnUse" x="16" y="8" width="799" height="603">
<rect x="16" y="8" width="799" height="602.001" rx="32" fill="white"/>
</mask>
<g mask="url(#mask0)">
<path d="M304.984 -99.3208C368.567 -153.862 462.433 -153.862 526.016 -99.3208L530.163 -95.7633C561.321 -69.0365 601.737 -55.6306 642.691 -58.4384L716.879 -63.5245C777.572 -67.6855 826.758 -15.0221 818.466 45.2458V45.2458C813.164 83.7884 831.67 121.718 865.311 141.262V141.262C928.972 178.246 928.972 270.199 865.311 307.183V307.183C831.67 326.726 813.164 364.656 818.466 403.199V403.199C826.758 463.466 777.572 516.13 716.879 511.969L642.691 506.883C601.737 504.075 561.321 517.481 530.164 544.208L526.016 547.765C462.433 602.307 368.568 602.307 304.984 547.765L300.837 544.208C269.679 517.481 229.263 504.075 188.309 506.883L114.122 511.969C53.4287 516.13 4.24282 463.466 12.5341 403.199V403.199C17.8365 364.656 -0.670026 326.726 -34.3107 307.183V307.183C-97.9717 270.199 -97.9717 178.246 -34.3107 141.262V141.262C-0.670029 121.718 17.8365 83.7884 12.5341 45.2458V45.2458C4.24281 -15.0221 53.4286 -67.6855 114.122 -63.5245L188.309 -58.4384C229.263 -55.6306 269.679 -69.0365 300.837 -95.7632L304.984 -99.3208Z" fill="url(#paint0_linear)"/>
</g>
<defs>
<linearGradient id="paint0_linear" x1="-177.112" y1="-194.121" x2="1041.62" y2="590.516" gradientUnits="userSpaceOnUse">
<stop stop-color="#DE3DBF"/>
<stop offset="1" stop-color="#67219E"/>
</linearGradient>
</defs>
</svg>
