<svg width="1403" height="747" viewBox="0 0 1403 747" fill="none" xmlns="http://www.w3.org/2000/svg">
<g clip-path="url(#clip0)">
<path d="M-699.252 449.337C-760.144 439.259 -760.35 351.79 -699.506 341.426L-518.061 310.519C-482.238 304.417 -462.208 265.73 -477.903 232.955L-480.595 227.333C-498.165 190.642 -470.969 148.291 -430.295 149.001L214.293 160.257C219.093 160.341 223.883 159.792 228.54 158.626L680.745 45.3777C689.387 43.2135 698.426 43.1923 707.077 45.3157L1159.81 156.434C1164.47 157.579 1169.27 158.104 1174.07 157.998L1818.59 143.708C1859.26 142.807 1886.66 185.03 1869.26 221.803L1866.6 227.437C1851.06 260.286 1871.27 298.878 1907.12 304.811L2088.71 334.864C2149.6 344.941 2149.8 432.411 2088.96 442.775L1907.52 473.682C1871.69 479.784 1851.66 518.47 1867.36 551.245L1870.05 556.867C1887.62 593.558 1860.42 635.909 1819.75 635.199L1175.16 623.944C1170.36 623.86 1165.57 624.408 1160.92 625.574L708.71 738.823C700.068 740.987 691.029 741.008 682.377 738.885L229.644 627.766C224.982 626.622 220.189 626.096 215.39 626.202L-429.138 640.492C-469.809 641.394 -497.203 599.171 -479.806 562.397L-477.141 556.763C-461.601 523.914 -481.812 485.323 -517.664 479.389L-699.252 449.337Z" fill="url(#paint0_linear)"/>
</g>
<defs>
<linearGradient id="paint0_linear" x1="-1019.88" y1="746.155" x2="-928.636" y2="-263.577" gradientUnits="userSpaceOnUse">
<stop stop-color="#DE3DBF"/>
<stop offset="1" stop-color="#67219E"/>
</linearGradient>
<clipPath id="clip0">
<rect width="740.432" height="2628.77" fill="white" transform="translate(-659.257 746.617) rotate(-90.1348)"/>
</clipPath>
</defs>
</svg>
